# AST/ASF file generated using VICON BodyLanguage
# -----------------------------------------------
:version 1.10
:name VICON
:units
  mass 1.0
  length 0.45
  angle deg
:documentation
   .ast/.asf automatically generated from VICON data using
   VICON BodyBuilder and BodyLanguage model FoxedUp or BRILLIANT.MOD
:root
   order TX TY TZ RX RY RZ
   axis XYZ
   position 0 0 0  
   orientation 0 0 0 
:bonedata
  begin
     id 1 
     name lhipjoint
     direction 0.604623 -0.733026 0.311616 
     length 2.56391 
     axis 0 0 0  XYZ
  end
  begin
     id 2 
     name lfemur
     direction 0.34202 -0.939693 0  
     length 7.75596  
     axis 0 0 20  XYZ
    dof rx ry rz
    limits (-160.0 20.0)
           (-70.0 70.0)
           (-60.0 70.0)
  end
  begin
     id 3 
     name ltibia
     direction 0.34202 -0.939693 0   
     length 7.63697   
     axis 0 0 20   XYZ
    dof rx
    limits (-10.0 170.0)
  end
  begin
     id 4 
     name lfoot
     direction 0.048038 -0.131983 0.990087   
     length 1.94388   
     axis -90 7.62852e-016 20   XYZ
    dof rx rz
    limits (-45.0 90.0)
           (-70.0 20.0)
  end
  begin
     id 5 
     name ltoes
     direction 1.53565e-011 -4.21929e-011 1   
     length 0.984801   
     axis -90 7.62852e-016 20   XYZ
    dof rx
    limits (-90.0 20.0)
  end
  begin
     id 6 
     name rhipjoint
     direction -0.609162 -0.729836 0.31026   
     length 2.57511  
     axis 0 0 0  XYZ 
  end
  begin
     id 7 
     name rfemur
     direction -0.34202 -0.939693 0   
     length 7.60772   
     axis 0 0 -20   XYZ
    dof rx ry rz
    limits (-160.0 20.0)
           (-70.0 70.0)
           (-70.0 60.0)
  end
  begin
     id 8 
     name rtibia
     direction -0.34202 -0.939693 0   
     length 7.68497   
     axis 0 0 -20   XYZ
    dof rx
    limits (-10.0 170.0)
 end
 begin
     id 9 
     name rfoot
     direction -0.0969806 -0.266452 0.958957   
     length 2.01398  
     axis -90 -7.62852e-016 -20   XYZ
    dof rx rz
    limits (-45.0 90.0)
           (-20.0 70.0)
  end
  begin
     id 10 
     name rtoes
     direction -1.53552e-011 -4.21869e-011 1   
     length 1.00896   
     axis -90 -7.62852e-016 -20   XYZ
    dof rx
    limits (-90.0 20.0)
  end
  begin
     id 11 
     name lowerback
     direction 0.0305179 0.993923 -0.10576   
     length 2.09077   
     axis 0 0 0   XYZ
    dof rx ry rz
    limits (-20.0 45.0)
           (-30.0 30.0)
           (-30.0 30.0)
  end
  begin
     id 12 
     name upperback
     direction -0.0137909 0.999867 0.00873764   
     length 2.08918   
     axis 0 0 0   XYZ
    dof rx ry rz
    limits (-20.0 45.0)
           (-30.0 30.0)
           (-30.0 30.0)
  end
  begin
     id 13 
     name thorax
     direction -0.0278536 0.997917 0.0581839   
     length 2.11939   
     axis 0 0 0   XYZ
    dof rx ry rz
    limits (-20.0 45.0)
           (-30.0 30.0)
           (-30.0 30.0)
  end
  begin
     id 14 
     name lowerneck
     direction 0.0138689 0.999837 -0.0116016   
     length 1.74353   
     axis 0 0 0   XYZ
    dof rx ry rz
    limits (-20.0 45.0)
           (-30.0 30.0)
           (-30.0 30.0)
  end
  begin
     id 15 
     name upperneck
     direction -0.00992078 0.999667 0.0238149   
     length 1.71734   
     axis 0 0 0   XYZ
    dof rx ry rz
    limits (-20.0 45.0)
           (-30.0 30.0)
           (-30.0 30.0)
  end
  begin
     id 16
     name head
     direction -0.00530555 0.999941 0.00944937  
     length 1.78249  
     axis 0 0 0   XYZ
    dof rx ry rz
    limits (-20.0 45.0)
           (-30.0 30.0)
           (-30.0 30.0)
  end
  begin
     id 17 
     name lclavicle
     direction 0.929165 0.366864 0.0454227  
     length 3.65686  
     axis 0 0 0   XYZ
    dof ry rz
    limits (-20.0 10.0)
           (0.0 20.0)
  end
  begin
     id 18 
     name lhumerus
     direction 1 -4.4897e-011 3.05413e-018   
     length 5.15218   
     axis -180 -30 -90   XYZ
    dof rx ry rz
    limits (-60.0 90.0)
           (-90.0 90.0)
           (-90.0 90.0)
  end
  begin
     id 19
     name lradius
     direction 1 -4.48963e-011 5.40022e-027   
     length 3.49459   
     axis -180 -30 -90   XYZ
    dof rx
    limits (-10.0 170.0)
  end
  begin
     id 20
     name lwrist
     direction 1 -4.48966e-011 9.79369e-027   
     length 1.7473   
     axis -4.67603e-015 90 90   XYZ
    dof ry
    limits (-180.0 0.0)
 end
  begin
     id 21 
     name lhand
     direction 1 -4.48996e-011 1.9593e-026   
     length 0.512466   
     axis -1.24987e-014 90 90   XYZ
    dof rx rz
    limits (-90.0 90.0)
           (-45.0 45.0)
  end
  begin
     id 22 
     name lfingers
     direction 1 -4.48931e-011 3.91616e-026   
     length 0.413163   
     axis -2.49979e-014 90 90   XYZ
    dof rx
    limits (0.0 90.0)
  end
  begin
     id 23
     name lthumb
     direction 0.707107 -6.34959e-011 0.707107   
     length 0.593222   
     axis -90 45 5.69224e-014   XYZ
    dof rx rz
    limits (-45.0 45.0)
           (-45.0 45.0)
  end
  begin
     id 24 
     name rclavicle
     direction -0.951469 0.307727 0.00346571   
     length 3.42864  
     axis 0 0 0   XYZ 
    dof ry rz
    limits (-10.0 20.0)
           (-20.0 0.0)
  end
  begin
     id 25 
     name rhumerus
     direction -1 -4.48967e-011 2.58643e-027  
     length 5.44344   
     axis -180 30 90   XYZ
    dof rx ry rz
    limits (-90.0 60.0)
           (-90.0 90.0)
           (-90.0 90.0)
  end
  begin
     id 26 
     name rradius
     direction -1 -4.48973e-011 4.26485e-028   
     length 3.58403   
     axis -180 30 90   XYZ
    dof rx
    limits (-10.0 170.0)
  end
  begin
     id 27 
     name rwrist
     direction -1 -4.48962e-011 9.79331e-027   
     length 1.79202   
     axis -4.67603e-015 -90 -90   XYZ
    dof ry
    limits (-180.0 0.0)
  end
  begin
     id 28
     name rhand
     direction -1 -4.48975e-011 1.95891e-026   
     length 0.34249   
     axis -1.24987e-014 -90 -90   XYZ
    dof rx rz
    limits (-90.0 90.0)
           (-45.0 45.0)
  end
  begin
     id 29
     name rfingers
     direction -1 -4.48893e-011 3.9147e-026   
     length 0.276124   
     axis -2.49979e-014 -90 -90   XYZ
    dof rx
    limits (0.0 90.0)
  end
  begin
     id 30
     name rthumb
     direction -0.707107 -6.34898e-011 0.707107   
     length 0.39646   
     axis -90 -45 -5.69224e-014   XYZ
    dof rx rz
    limits (-45.0 45.0)
           (-45.0 45.0)
  end
:hierarchy
  begin
    root lhipjoint rhipjoint lowerback
    lhipjoint lfemur
    lfemur ltibia
    ltibia lfoot
    lfoot ltoes
    rhipjoint rfemur
    rfemur rtibia
    rtibia rfoot
    rfoot rtoes
    lowerback upperback
    upperback thorax
    thorax lowerneck lclavicle rclavicle
    lowerneck upperneck
    upperneck head
    lclavicle lhumerus
    lhumerus lradius
    lradius lwrist
    lwrist lhand lthumb
    lhand lfingers
    rclavicle rhumerus
    rhumerus rradius
    rradius rwrist
    rwrist rhand rthumb
    rhand rfingers
  end

#!OML:ASF H:\charlestonDancing\Project 1\Capture day 1\Session 1\femaleDancer.ASF
:FULLY-SPECIFIED
:DEGREES
47
root -19.6065 17.0833 -4.50195 -209.939 86.4737 -227.104
lowerback 27.006 -7.23989 2.24321
upperback 5.50118 -7.86903 2.53206
thorax -8.61563 -3.51714 4.14572
lowerneck -4.24855 1.48709 4.97745
upperneck -15.1555 2.2269 -1.37804
head -4.17419 1.0633 -1.39413
rclavicle 2.68359e-014 -2.18663e-014
rhumerus -19.458 16.8619 -73.8413
rradius 63.9805
rwrist 0.818537
rhand -12.6418 -26.1245
rfingers 7.12502
rthumb 13.4385 -55.671
lclavicle 2.68359e-014 -2.18663e-014
lhumerus 36.6488 -19.1689 59.2847
lradius 69.5784
lwrist 31.9643
lhand -13.8263 29.2988
lfingers 7.12502
lthumb 12.2966 58.9173
rfemur -50.2312 3.41116 2.47724
rtibia 37.0292
rfoot 2.92668 -11.7236
rtoes -26.3291
lfemur -21.2957 -1.5585 -19.1658
ltibia 50.627
lfoot -13.9078 -11.9579
ltoes -17.1743
48
root -19.7094 17.1148 -4.68612 -213.332 85.4878 -230.031
lowerback 26.8546 -7.31486 2.01985
upperback 5.35894 -8.03228 2.60942
thorax -8.65061 -3.59111 4.40247
lowerneck -4.45319 1.01319 5.00145
upperneck -14.437 1.53175 -1.39266
head -3.89952 0.712495 -1.37521
rclavicle -7.05189e-014 3.57812e-014
rhumerus -20.1295 16.3196 -72.1461
rradius 66.5342
rwrist -1.08923
rhand -10.1341 -25.2941
rfingers 7.12502
rthumb 15.8545 -54.6649
lclavicle -7.05189e-014 3.57812e-014
lhumerus 36.4422 -20.2099 58.721
lradius 69.0315
lwrist 32.0303
lhand -12.7043 29.2181
lfingers 7.12502
lthumb 13.3783 58.7686
rfemur -49.47 4.22241 0.280706
rtibia 36.7546
rfoot 3.90497 -13.7001
rtoes -20.7914
lfemur -20.2712 -1.41451 -20.5919
ltibia 48.7916
lfoot -13.5694 -13.2919
ltoes -13.7868
49
root -19.7956 17.1458 -4.86168 -214.784 84.4863 -231.099
lowerback 26.5268 -7.38507 1.88469
upperback 5.15341 -8.1749 2.74035
thorax -8.67154 -3.66086 4.6465
lowerneck -4.60359 0.455317 4.93649
upperneck -13.6655 0.725765 -1.41145
head -3.62411 0.309689 -1.344
rclavicle 2.6339e-015 -7.21588e-014
rhumerus -20.8242 15.744 -70.2202
rradius 68.9215
rwrist -2.91404
rhand -7.45463 -24.5522
rfingers 7.12502
rthumb 18.4335 -53.6988
lclavicle 2.6339e-015 -7.21588e-014
lhumerus 35.9701 -21.3254 58.2261
lradius 68.7252
lwrist 32.0822
lhand -12.1268 29.1361
lfingers 7.12502
lthumb 13.9348 58.6492
rfemur -48.9161 5.0309 -1.69734
rtibia 37.0122
rfoot 4.13529 -16.0319
rtoes -13.7594
lfemur -19.3593 -1.44289 -21.8607
ltibia 47.1039
lfoot -12.8576 -14.8348
ltoes -9.8897
50
root -19.8627 17.1658 -5.03196 -214.646 83.46 -230.731
lowerback 25.8765 -7.51805 1.94101
upperback 4.90188 -8.36687 2.90353
thorax -8.59872 -3.76566 4.7987
lowerneck -4.80417 -0.0939111 4.63134
upperneck -12.7745 -0.0484078 -1.26435
head -3.29742 -0.0714868 -1.21873
rclavicle 4.57205e-014 -2.24627e-014
rhumerus -21.5135 15.2759 -68.1074
rradius 71.1955
rwrist -5.00398
rhand -5.50926 -23.9939
rfingers 7.12502
rthumb 20.304 -52.9526
lclavicle 4.57205e-014 -2.24627e-014
lhumerus 35.2448 -22.5152 57.6493
lradius 68.7318
lwrist 32.3698
lhand -11.8785 28.8273
lfingers 7.12502
lthumb 14.174 58.3237
rfemur -48.7655 5.43536 -3.28599
rtibia 38.1064
rfoot 3.41031 -18.0644
rtoes -6.91956
lfemur -18.6293 -1.59638 -23.0418
ltibia 45.6247
lfoot -12.0131 -16.302
ltoes -5.90666
51
root -19.8991 17.1804 -5.19861 -214.817 82.8935 -230.582
lowerback 25.0994 -7.57608 2.14803
upperback 4.71837 -8.42492 3.11385
thorax -8.40358 -3.81406 4.85113
lowerneck -4.45882 -0.636927 3.65142
upperneck -12.2502 -0.717167 -0.552946
head -3.18225 -0.39063 -0.801958
rclavicle -1.3577e-013 8.90555e-014
rhumerus -22.1128 14.8818 -65.8135
rradius 73.3667
rwrist -6.89153
rhand -3.88208 -23.7934
rfingers 7.12502
rthumb 21.8672 -52.5778
lclavicle -1.3577e-013 8.90555e-014
lhumerus 34.2966 -23.692 56.9719
lradius 68.9803
lwrist 32.6232
lhand -11.5694 28.4348
lfingers 7.12502
lthumb 14.4719 57.9101
rfemur -48.8114 4.61146 -3.02192
rtibia 40.0968
rfoot 2.62951 -19.5109
rtoes -1.16931
lfemur -17.7156 -1.44799 -23.9732
ltibia 44.3391
lfoot -10.7511 -17.5988
ltoes 0.71255
52
root -19.9304 17.1957 -5.35652 -213.99 82.4291 -229.602
lowerback 24.4357 -7.68066 2.47508
upperback 4.32486 -8.50934 3.39377
thorax -8.50237 -3.87176 4.95737
lowerneck -2.90991 -1.19177 1.73068
upperneck -12.5275 -1.27585 1.06389
head -3.53929 -0.653048 0.071341
rclavicle -9.89948e-014 6.32135e-014
rhumerus -22.6818 14.5897 -63.4311
rradius 75.3095
rwrist -8.25127
rhand -1.81533 -23.6305
rfingers 7.12502
rthumb 23.8505 -52.1698
lclavicle -9.89948e-014 6.32135e-014
lhumerus 33.0263 -24.924 56.163
lradius 69.4625
lwrist 32.7889
lhand -10.8377 27.9957
lfingers 7.12502
lthumb 15.1768 57.4191
rfemur -49.1766 2.5826 -1.4752
rtibia 42.9313
rfoot 1.53928 -18.9672
rtoes -0.65555
lfemur -17.1046 -1.3326 -24.7465
ltibia 43.2825
lfoot -9.42973 -18.3239
ltoes 7.10538
53
root -19.9373 17.2208 -5.51041 -215.152 82.4349 -230.435
lowerback 23.9146 -7.66918 2.70534
upperback 4.02167 -8.46068 3.64405
thorax -8.56868 -3.8624 5.05213
lowerneck -2.11749 -1.31275 -0.697436
upperneck -12.2323 -1.2379 3.44658
head -3.55649 -0.621667 1.2778
rclavicle -2.0276e-014 -4.41302e-014
rhumerus -22.8381 14.3892 -60.9793
rradius 76.8342
rwrist -9.20321
rhand 0.288072 -23.3183
rfingers 7.12502
rthumb 25.8663 -51.5791
lclavicle -2.0276e-014 -4.41302e-014
lhumerus 31.5263 -26.1111 55.2971
lradius 70.1586
lwrist 32.821
lhand -10.0314 27.2258
lfingers 7.12502
lthumb 15.9534 56.5888
rfemur -49.6989 0.757026 0.557949
rtibia 46.2867
rfoot 0.412677 -17.4387
rtoes -4.59301
lfemur -16.2363 -0.778122 -25.4238
ltibia 42.3308
lfoot -9.29328 -18.3083
ltoes 7.76959
54
root -19.9335 17.2596 -5.65175 -217.565 82.5005 -232.581
lowerback 23.3466 -7.62816 2.76246
upperback 3.74354 -8.43201 3.81881
thorax -8.56654 -3.86219 5.15481
lowerneck -2.04638 -1.60927 -0.801168
upperneck -11.2077 -1.70487 3.40559
head -3.20081 -0.857366 1.27787
rclavicle -4.01545e-014 -1.43125e-014
rhumerus -22.6233 14.189 -58.547
rradius 78.0332
rwrist -10.0508
rhand 1.72836 -22.4807
rfingers 7.12502
rthumb 27.2448 -50.533
lclavicle -4.01545e-014 -1.43125e-014
lhumerus 29.6886 -27.2851 54.5105
lradius 71.1276
lwrist 32.7184
lhand -9.43223 26.311
lfingers 7.12502
lthumb 16.5303 55.6269
rfemur -50.3944 -1.07003 2.79895
rtibia 49.8975
rfoot -2.66279 -14.354
rtoes -6.76122
lfemur -15.4716 -0.104503 -26.1452
ltibia 41.4476
lfoot -9.11655 -17.9936
ltoes 5.77425
55
root -19.9161 17.3113 -5.78313 -221.844 82.5011 -236.572
lowerback 22.8019 -7.56025 2.5566
upperback 3.55564 -8.44097 3.8963
thorax -8.44906 -3.87639 5.2978
lowerneck -1.22008 -1.8235 -0.616115
upperneck -11.1313 -2.01967 3.31706
head -3.32269 -1.03283 1.23483
rclavicle -2.5842e-014 -1.35174e-014
rhumerus -22.0441 13.8593 -56.1442
rradius 79.0469
rwrist -11.0837
rhand 2.33775 -21.6548
rfingers 7.12502
rthumb 27.8276 -49.6142
lclavicle -2.5842e-014 -1.35174e-014
lhumerus 27.7567 -28.2248 53.7496
lradius 72.2323
lwrist 32.6914
lhand -8.53327 25.609
lfingers 7.12502
lthumb 17.3957 54.8506
rfemur -51.0173 -2.80071 5.03786
rtibia 53.3449
rfoot -4.81878 -12.1162
rtoes -7.04983
lfemur -14.6501 0.701381 -27.0155
ltibia 40.5303
lfoot -8.24158 -17.6659
ltoes 1.86367
56
root -19.8829 17.3661 -5.90752 -226.943 82.392 -241.337
lowerback 22.3305 -7.49038 2.1945
upperback 3.4285 -8.48046 3.92732
thorax -8.28318 -3.90133 5.48651
lowerneck -0.695827 -1.98951 -0.486205
upperneck -10.9187 -2.25468 3.37285
head -3.3428 -1.16624 1.24143
rclavicle -2.10712e-014 -4.77083e-015
rhumerus -21.0952 13.3741 -53.825
rradius 79.7534
rwrist -12.4799
rhand 2.21179 -21.9292
rfingers 7.12502
rthumb 27.7071 -49.908
lclavicle -2.10712e-014 -4.77083e-015
lhumerus 25.9256 -28.9393 53.1245
lradius 73.304
lwrist 32.9741
lhand -7.47381 25.2876
lfingers 7.12502
lthumb 18.4151 54.4359
rfemur -51.4483 -4.34598 7.18472
rtibia 56.5034
rfoot -6.87407 -10.3473
rtoes -8.97175
lfemur -13.6898 1.54565 -27.9208
ltibia 39.4926
lfoot -6.81473 -17.3637
ltoes 2.72077
57
root -19.8374 17.4244 -6.02492 -231.686 82.2392 -245.884
lowerback 22.1529 -7.41025 1.90896
upperback 3.03293 -8.47428 3.95871
thorax -8.58221 -3.89319 5.69188
lowerneck -0.982317 -2.22832 0.0113973
upperneck -9.61236 -2.65904 2.97859
head -2.84301 -1.37338 1.00952
rclavicle 2.14687e-014 -3.02153e-014
rhumerus -20.1838 12.9457 -51.6502
rradius 80.1406
rwrist -14.0896
rhand 1.40562 -22.1852
rfingers 7.12502
rthumb 26.936 -50.2854
lclavicle 2.14687e-014 -3.02153e-014
lhumerus 23.8762 -29.8548 52.8599
lradius 74.3651
lwrist 33.5091
lhand -6.73323 25.0435
lfingers 7.12502
lthumb 19.1274 54.1229
rfemur -52.0458 -5.87407 9.49121
rtibia 58.9772
rfoot -7.79878 -9.58976
rtoes -11.0934
lfemur -12.8609 2.33593 -28.7305
ltibia 38.4415
lfoot -5.30498 -17.108
ltoes 2.6645
